<svg width="30" height="30" viewBox="0 0 30 30" fill="none" xmlns="http://www.w3.org/2000/svg">
<path d="M14.5 10.2778C14.5 10.7935 14.2893 11.2881 13.9142 11.6527C13.5391 12.0174 13.0304 12.2222 12.5 12.2222C11.9696 12.2222 11.4609 12.0174 11.0858 11.6527C10.7107 11.2881 10.5 10.7935 10.5 10.2778C10.5 9.24638 10.9214 8.25723 11.6716 7.52792C12.4217 6.79861 13.4391 6.38889 14.5 6.38889C15.5609 6.38889 16.5783 6.79861 17.3284 7.52792C18.0786 8.25723 18.5 9.24638 18.5 10.2778C18.5 11.8249 17.8679 13.3086 16.7426 14.4026C15.6174 15.4965 14.0913 16.1111 12.5 16.1111C10.9087 16.1111 9.38258 15.4965 8.25736 14.4026C7.13214 13.3086 6.5 11.8249 6.5 10.2778M14.5 2.5C16.6217 2.5 18.6566 3.31944 20.1569 4.77806C21.6571 6.23667 22.5 8.21498 22.5 10.2778C22.5 12.8563 21.4464 15.3292 19.5711 17.1524C17.6957 18.9757 15.1522 20 12.5 20C9.84784 20 7.3043 18.9757 5.42893 17.1524C3.55357 15.3292 2.5 12.8563 2.5 10.2778" stroke="url(#paint0_linear_32_502)" stroke-width="2.5" stroke-linecap="round" stroke-linejoin="round"/>
<defs>
<linearGradient id="paint0_linear_32_502" x1="12.5" y1="2.5" x2="12.5" y2="20" gradientUnits="userSpaceOnUse">
<stop stop-color="#A57673"/>
<stop offset="1" stop-color="#3F2D2C"/>
</linearGradient>
</defs>
</svg>
